<svg xmlns="http://www.w3.org/2000/svg" width="1024" height="1024" viewBox="0 0 1024 1024" fill="none">
  <defs>
    <clipPath id="iconMask" clipPathUnits="userSpaceOnUse">
      <rect x="96" y="96" width="832" height="832" rx="183.04" />
    </clipPath>
  </defs>

  <g clip-path="url(#iconMask)">
    <rect x="96" y="96" width="832" height="832" fill="#2D66EA" />
    <rect x="96" y="512" width="832" height="416" fill="#244BCB" fill-opacity="0.38" />
    <rect x="101" y="101" width="822" height="822" rx="178.04" fill="none" stroke="#0A1F63" stroke-width="6" />
    <rect x="136" y="136" width="752" height="356" rx="168" fill="#FFFFFF" fill-opacity="0.16" />

    <path d="M335 284H467C558.68 284 633 358.32 633 450V574C633 665.68 558.68 740 467 740H335V284ZM439 388C402.549 388 373 417.549 373 454V570C373 606.451 402.549 636 439 636H467C503.451 636 533 606.451 533 570V454C533 417.549 503.451 388 467 388H439Z" fill="#123AA7" fill-opacity="0.22" transform="translate(0 8)" />
    <path d="M693 284H795V610C795 701.68 720.68 776 629 776C567.144 776 517 725.856 517 664C517 602.144 567.144 552 629 552H657V654C657 669.464 644.464 682 629 682C613.536 682 601 669.464 601 654C601 638.536 613.536 626 629 626H693V284Z" fill="#123AA7" fill-opacity="0.22" transform="translate(0 8)" />

    <path d="M335 284H467C558.68 284 633 358.32 633 450V574C633 665.68 558.68 740 467 740H335V284ZM439 388C402.549 388 373 417.549 373 454V570C373 606.451 402.549 636 439 636H467C503.451 636 533 606.451 533 570V454C533 417.549 503.451 388 467 388H439Z" fill="#F3F7FF" />
    <path d="M693 284H795V610C795 701.68 720.68 776 629 776C567.144 776 517 725.856 517 664C517 602.144 567.144 552 629 552H657V654C657 669.464 644.464 682 629 682C613.536 682 601 669.464 601 654C601 638.536 613.536 626 629 626H693V284Z" fill="#F3F7FF" />
  </g>
</svg>
